<svg xmlns="http://www.w3.org/2000/svg" fill="#ffffff" width="14px" height="14px" id="bill"><g style="line-height:125%"><path d="M9 2C7.347 2 6 3.347 6 5v16H2.5a.5.5 0 0 0-.5.5V23c0 2.207 1.793 4 4 4h10v2.5a.5.5 0 0 0 .5.5h14a.5.5 0 0 0 .5-.5v-18a.5.5 0 0 0-.5-.5H25V5.031C25 3.365 23.657 2 22 2c-.054 0-.103-.003-.156 0a.5.5 0 0 0-.094 0H9zm0 1h10.781A3.001 3.001 0 0 0 19 5.031V11h-2.5a.5.5 0 0 0-.5.5v9.469L7 21V5c0-1.117.883-2 2-2zm12.813 0c.062-.006.123 0 .187 0 1.113 0 2 .896 2 2.031V11h-4V5.031c0-1.07.79-1.936 1.813-2.031zM8 5v1h1V5H8zm2 0v1h8V5h-8zM8 7v1h1V7H8zm2 0v1h8V7h-8zM8 9v1h1V9H8zm2 0v1h8V9h-8zm-2 2v1h1v-1H8zm2 0v1h5v-1h-5zm7 1h13v17H17v-2.406a.5.5 0 0 0 0-.094v-5.031a.5.5 0 0 0 0-.094V12zm.844.5a.5.5 0 0 0-.344.5v3a.5.5 0 0 0 .5.5h11a.5.5 0 0 0 .5-.5v-3a.5.5 0 0 0-.5-.5H18a.5.5 0 0 0-.156 0zM8 13v1h1v-1H8zm2 0v1h5v-1h-5zm8.5.5h10v2h-10v-2zM11 15v1h4v-1h-4zm0 2v1h4v-1h-4zm7.406 0a.5.5 0 0 0-.406.5v2a.5.5 0 0 0 .5.5h2a.5.5 0 0 0 .5-.5v-2a.5.5 0 0 0-.5-.5h-2a.5.5 0 0 0-.094 0zm4 0a.5.5 0 0 0-.406.5v2a.5.5 0 0 0 .5.5h2a.5.5 0 0 0 .5-.5v-2a.5.5 0 0 0-.5-.5h-2a.5.5 0 0 0-.094 0zm4 0a.5.5 0 0 0-.406.5v2a.5.5 0 0 0 .5.5h2a.5.5 0 0 0 .5-.5v-2a.5.5 0 0 0-.5-.5h-2a.5.5 0 0 0-.094 0zM19 18h1v1h-1v-1zm4 0h1v1h-1v-1zm4 0h1v1h-1v-1zm-8.594 3a.5.5 0 0 0-.406.5v2a.5.5 0 0 0 .5.5h2a.5.5 0 0 0 .5-.5v-2a.5.5 0 0 0-.5-.5h-2a.5.5 0 0 0-.094 0zm4 0a.5.5 0 0 0-.406.5v2a.5.5 0 0 0 .5.5h2a.5.5 0 0 0 .5-.5v-2a.5.5 0 0 0-.5-.5h-2a.5.5 0 0 0-.094 0zm4 0a.5.5 0 0 0-.406.5v6a.5.5 0 0 0 .5.5h2a.5.5 0 0 0 .5-.5v-6a.5.5 0 0 0-.5-.5h-2a.5.5 0 0 0-.094 0zM16 21.969V26H6c-1.67 0-3-1.33-3-3v-1l13-.031zM19 22h1v1h-1v-1zm4 0h1v1h-1v-1zm4 0h1v5h-1v-5zm-8.594 3a.5.5 0 0 0-.406.5v2a.5.5 0 0 0 .5.5h2a.5.5 0 0 0 .5-.5v-2a.5.5 0 0 0-.5-.5h-2a.5.5 0 0 0-.094 0zm4 0a.5.5 0 0 0-.406.5v2a.5.5 0 0 0 .5.5h2a.5.5 0 0 0 .5-.5v-2a.5.5 0 0 0-.5-.5h-2a.5.5 0 0 0-.094 0zM19 26h1v1h-1v-1zm4 0h1v1h-1v-1z" color="#000" overflow="visible" style="text-indent:0;text-align:start;line-height:125%;text-transform:none;block-progression:tb;marker:none;-inkscape-font-specification:Sans" font-family="sans-serif" font-weight="400" letter-spacing="0" word-spacing="0"></path></g></svg>