<?xml version="1.0" encoding="iso-8859-1"?>
<!-- Uploaded to: SVG Repo, www.svgrepo.com, Generator: SVG Repo Mixer Tools -->
<svg fill="#ffffff" height="14px" width="14px" version="1.1" id="Layer_1" xmlns="http://www.w3.org/2000/svg" xmlns:xlink="http://www.w3.org/1999/xlink" 
	 viewBox="0 0 488 488" xml:space="preserve">
<g transform="translate(0 -540.36)">
	<g>
		<g>
			<path d="M484,652.629c-3.1-2.3-76.6-56.505-122.2-62.205c-36.8-4.3-100.5,21.102-117.6,28.302
				c-17.2-8.001-82.1-36.203-118.9-28.202C75.8,600.925,7,650.329,4.1,652.429c-2.6,1.9-4.1,4.9-4.1,8.101v309.026
				c0,3.8,2.1,7.201,5.5,8.901c1.4,0.7,3,1.1,4.5,1.1c2.1,0,4.2-0.7,6-2c0.7-0.5,68.1-50.504,113.5-60.005
				c29-6.301,89.2,19.502,110,30.003c2.9,1.4,6.2,1.4,9.1,0c20.5-10.501,80.4-36.403,110-30.003
				c44.6,9.501,112.8,59.605,113.5,60.105c3,2.2,7.1,2.6,10.4,0.9c3.4-1.7,5.5-5.2,5.5-8.901V660.63
				C488,657.53,486.5,654.529,484,652.629z M234,922.952c-25.2-11.201-77.2-31.703-108.7-24.902
				c-35.8,7.501-81.5,36.103-105.3,52.304V665.83c15.4-10.701,70.6-47.504,109.5-55.705c26.8-5.901,80,14.701,104.5,25.902V922.952z
				 M468,950.454L468,950.454c-24-16.201-70-44.904-105.3-52.404c-4.4-1-9.2-1.4-14.3-1.4c-31.5,0-72.8,16.501-94.4,26.202V636.428
				c18.4-7.601,75-29.602,105.4-26.102c34.8,4.3,92.9,44.204,108.6,55.405V950.454z"/>
			<path d="M418,826.144l-111.3-20.102c-5.4-0.9-10.6,2.7-11.6,8.101c-0.9,5.4,2.7,10.601,8.1,11.601l111.3,20.102
				c0.6,0.1,1.2,0.2,1.8,0.2h0c4.7,0,8.9-3.4,9.8-8.301C427,832.345,423.4,827.144,418,826.144z"/>
			<path d="M418,764.339l-111.3-20.102c-5.4-0.9-10.6,2.7-11.6,8.101c-0.9,5.4,2.7,10.601,8.1,11.601l111.3,20.102
				c0.6,0.1,1.2,0.2,1.8,0.2h0c4.7,0,8.9-3.4,9.8-8.301C427,770.539,423.4,765.339,418,764.339z"/>
			<path d="M295.1,690.533c-0.9,5.4,2.7,10.601,8.1,11.601l111.3,20.102c0.6,0.1,1.2,0.2,1.8,0.2h0c4.7,0,8.9-3.4,9.8-8.301
				c0.9-5.4-2.7-10.601-8.1-11.601l-111.3-20.102C301.3,681.532,296,685.132,295.1,690.533z"/>
			<path d="M61.9,714.235c0.8,4.8,5.1,8.201,9.8,8.201v0c0.6,0,1.2-0.1,1.8-0.1l111.3-20.102c5.5-1,9.1-6.201,8.1-11.601
				c-1-5.5-6.2-9.101-11.6-8.101L70,702.634C64.5,703.634,60.9,708.834,61.9,714.235z"/>
			<path d="M181.3,744.337L70,764.439c-5.5,1-9.1,6.201-8.1,11.601c0.8,4.8,5.1,8.201,9.8,8.201c0.6,0,1.2-0.1,1.8-0.1l111.3-20.102
				c5.5-1,9.1-6.201,8.1-11.601C191.9,746.937,186.7,743.337,181.3,744.337z"/>
			<path d="M181.3,806.142L70,826.244c-5.5,1-9.1,6.201-8.1,11.601c0.8,4.8,5.1,8.201,9.8,8.201c0.6,0,1.2-0.1,1.8-0.1l111.3-20.102
				c5.5-1,9.1-6.201,8.1-11.601C191.9,808.743,186.7,805.142,181.3,806.142z"/>
		</g>
	</g>
</g>
</svg>