<!-- <svg class="svg-icon" style="width: 1em; height: 1em;vertical-align: middle;fill: currentColor;overflow: hidden;" viewBox="0 0 1024 1024" version="1.1" xmlns="http://www.w3.org/2000/svg"><path d="M843.282963 870.115556c-8.438519-140.515556-104.296296-257.422222-233.908148-297.14963C687.881481 536.272593 742.4 456.533333 742.4 364.088889c0-127.241481-103.158519-230.4-230.4-230.4S281.6 236.847407 281.6 364.088889c0 92.444444 54.518519 172.183704 133.12 208.877037-129.611852 39.727407-225.46963 156.634074-233.908148 297.14963-0.663704 10.903704 7.964444 20.195556 18.962963 20.195556l0 0c9.955556 0 18.299259-7.774815 18.962963-17.73037C227.745185 718.506667 355.65037 596.385185 512 596.385185s284.254815 122.121481 293.357037 276.195556c0.568889 9.955556 8.912593 17.73037 18.962963 17.73037C835.318519 890.311111 843.946667 881.019259 843.282963 870.115556zM319.525926 364.088889c0-106.287407 86.186667-192.474074 192.474074-192.474074s192.474074 86.186667 192.474074 192.474074c0 106.287407-86.186667 192.474074-192.474074 192.474074S319.525926 470.376296 319.525926 364.088889z"  /></svg> -->
<svg xmlns="http://www.w3.org/2000/svg" xmlns:xlink="http://www.w3.org/1999/xlink" version="1.1" width="256" height="256" viewBox="0 0 256 256" xml:space="preserve">

<defs>
</defs>
<g style="stroke: none; stroke-width: 0; stroke-dasharray: none; stroke-linecap: butt; stroke-linejoin: miter; stroke-miterlimit: 10; fill: none; fill-rule: nonzero; opacity: 1;" transform="translate(1.4065934065934016 1.4065934065934016) scale(2.81 2.81)" >
	<path d="M 45 0 C 20.147 0 0 20.147 0 45 c 0 24.853 20.147 45 45 45 s 45 -20.147 45 -45 C 90 20.147 69.853 0 45 0 z M 45 22.007 c 8.899 0 16.14 7.241 16.14 16.14 c 0 8.9 -7.241 16.14 -16.14 16.14 c -8.9 0 -16.14 -7.24 -16.14 -16.14 C 28.86 29.248 36.1 22.007 45 22.007 z M 45 83.843 c -11.135 0 -21.123 -4.885 -27.957 -12.623 c 3.177 -5.75 8.144 -10.476 14.05 -13.341 c 2.009 -0.974 4.354 -0.958 6.435 0.041 c 2.343 1.126 4.857 1.696 7.473 1.696 c 2.615 0 5.13 -0.571 7.473 -1.696 c 2.083 -1 4.428 -1.015 6.435 -0.041 c 5.906 2.864 10.872 7.591 14.049 13.341 C 66.123 78.957 56.135 83.843 45 83.843 z" style="stroke: none; stroke-width: 1; stroke-dasharray: none; stroke-linecap: butt; stroke-linejoin: miter; stroke-miterlimit: 10; fill: #6c757d; fill-rule: nonzero; opacity: 1;" transform=" matrix(1 0 0 1 0 0) " stroke-linecap="round" />
</g>
</svg>