<svg class="svg-icon" width="14px" height="14px" style="display: inline; vertical-align: middle;fill: #ffffff;overflow: hidden;" viewBox="0 0 1024 1024" version="1.1" xmlns="http://www.w3.org/2000/svg"><path d="M307.2 864c-19.2 0-32-12.8-32-32L275.2 192c0-19.2 12.8-32 32-32l416 0c19.2 0 32 12.8 32 32l0 300.8c12.8 6.4 19.2 6.4 32 12.8L787.2 160C780.8 140.8 768 128 748.8 128L275.2 128C256 128 243.2 140.8 243.2 160l0 704C243.2 883.2 256 896 275.2 896l416 0c-38.4 0-76.8-12.8-108.8-32L307.2 864z"  /><path d="M652.8 243.2 371.2 243.2C358.4 243.2 352 256 352 262.4s6.4 12.8 19.2 12.8l281.6 0c12.8 0 19.2-6.4 19.2-12.8S665.6 243.2 652.8 243.2z"  /><path d="M652.8 403.2 371.2 403.2c-12.8 0-19.2 6.4-19.2 12.8s6.4 12.8 19.2 12.8l281.6 0c12.8 0 19.2-6.4 19.2-12.8S665.6 403.2 652.8 403.2z"  /><path d="M704 505.6c-108.8 0-192 83.2-192 192s83.2 192 192 192 192-83.2 192-192S812.8 505.6 704 505.6zM704 857.6c-89.6 0-160-70.4-160-160 0-89.6 70.4-160 160-160s160 70.4 160 160C864 780.8 793.6 857.6 704 857.6z"  /><path d="M716.8 787.2l0 25.6L704 812.8l0-25.6c-38.4 0-57.6-19.2-64-57.6l25.6-6.4c0 25.6 19.2 44.8 38.4 44.8l0-70.4c-38.4-6.4-57.6-25.6-57.6-51.2 0-32 19.2-51.2 57.6-51.2L704 569.6l12.8 0 0 19.2c32 0 51.2 19.2 57.6 51.2l-25.6 6.4c-6.4-19.2-12.8-32-32-32l0 64c44.8 12.8 64 25.6 64 57.6C774.4 768 755.2 787.2 716.8 787.2zM704 672 704 614.4c-19.2 0-32 12.8-32 32C665.6 659.2 678.4 672 704 672zM716.8 704l0 64c19.2 0 32-12.8 32-32C748.8 716.8 736 710.4 716.8 704z"  /></svg>